<svg xmlns="http://www.w3.org/2000/svg" xmlns:xlink="http://www.w3.org/1999/xlink" width="48" zoomAndPan="magnify" viewBox="0 0 36 36.000001" height="48" preserveAspectRatio="xMidYMid meet" version="1.0"><defs><clipPath id="a67ab430f1"><path d="M 0.488281 10 L 2 10 L 2 27 L 0.488281 27 Z M 0.488281 10 " clip-rule="nonzero"/></clipPath><clipPath id="201dccb7b7"><path d="M 2 5.976562 L 4 5.976562 L 4 30.785156 L 2 30.785156 Z M 2 5.976562 " clip-rule="nonzero"/></clipPath><clipPath id="bbc84127b5"><path d="M 34 16 L 35.511719 16 L 35.511719 21 L 34 21 Z M 34 16 " clip-rule="nonzero"/></clipPath></defs><g clip-path="url(#a67ab430f1)"><path fill="#ffffff" d="M 1.070312 10.863281 C 0.753906 10.863281 0.492188 11.121094 0.492188 11.441406 L 0.492188 25.46875 C 0.492188 25.789062 0.753906 26.046875 1.070312 26.046875 C 1.390625 26.046875 1.652344 25.789062 1.652344 25.46875 L 1.652344 11.441406 C 1.652344 11.121094 1.390625 10.863281 1.070312 10.863281 " fill-opacity="1" fill-rule="nonzero"/></g><g clip-path="url(#201dccb7b7)"><path fill="#ffffff" d="M 3.1875 5.980469 C 2.867188 5.980469 2.609375 6.238281 2.609375 6.558594 L 2.609375 30.351562 C 2.609375 30.667969 2.867188 30.929688 3.1875 30.929688 C 3.507812 30.929688 3.765625 30.667969 3.765625 30.351562 L 3.765625 6.558594 C 3.765625 6.238281 3.507812 5.980469 3.1875 5.980469 " fill-opacity="1" fill-rule="nonzero"/></g><path fill="#ffffff" d="M 5.304688 8.910156 C 4.984375 8.910156 4.722656 9.167969 4.722656 9.488281 L 4.722656 27.421875 C 4.722656 27.742188 4.984375 28 5.304688 28 C 5.621094 28 5.882812 27.742188 5.882812 27.421875 L 5.882812 9.488281 C 5.882812 9.167969 5.621094 8.910156 5.304688 8.910156 " fill-opacity="1" fill-rule="nonzero"/><path fill="#ffffff" d="M 7.417969 10.863281 C 7.097656 10.863281 6.839844 11.121094 6.839844 11.441406 L 6.839844 25.46875 C 6.839844 25.789062 7.097656 26.046875 7.417969 26.046875 C 7.738281 26.046875 7.996094 25.789062 7.996094 25.46875 L 7.996094 11.441406 C 7.996094 11.121094 7.738281 10.863281 7.417969 10.863281 " fill-opacity="1" fill-rule="nonzero"/><path fill="#ffffff" d="M 9.535156 14.765625 C 9.214844 14.765625 8.953125 15.027344 8.953125 15.347656 L 8.953125 21.5625 C 8.953125 21.882812 9.214844 22.140625 9.535156 22.140625 C 9.851562 22.140625 10.113281 21.882812 10.113281 21.5625 L 10.113281 15.347656 C 10.113281 15.027344 9.851562 14.765625 9.535156 14.765625 " fill-opacity="1" fill-rule="nonzero"/><path fill="#ffffff" d="M 11.648438 12.8125 C 11.328125 12.8125 11.070312 13.074219 11.070312 13.394531 L 11.070312 23.515625 C 11.070312 23.835938 11.328125 24.09375 11.648438 24.09375 C 11.96875 24.09375 12.226562 23.835938 12.226562 23.515625 L 12.226562 13.394531 C 12.226562 13.074219 11.96875 12.8125 11.648438 12.8125 " fill-opacity="1" fill-rule="nonzero"/><path fill="#ffffff" d="M 13.765625 15.742188 C 13.445312 15.742188 13.183594 16.003906 13.183594 16.324219 L 13.183594 20.585938 C 13.183594 20.90625 13.445312 21.164062 13.765625 21.164062 C 14.085938 21.164062 14.34375 20.90625 14.34375 20.585938 L 14.34375 16.324219 C 14.34375 16.003906 14.085938 15.742188 13.765625 15.742188 " fill-opacity="1" fill-rule="nonzero"/><path fill="#ffffff" d="M 15.878906 13.789062 C 15.558594 13.789062 15.300781 14.050781 15.300781 14.371094 L 15.300781 22.539062 C 15.300781 22.859375 15.558594 23.117188 15.878906 23.117188 C 16.199219 23.117188 16.460938 22.859375 16.460938 22.539062 L 16.460938 14.371094 C 16.460938 14.050781 16.199219 13.789062 15.878906 13.789062 " fill-opacity="1" fill-rule="nonzero"/><path fill="#ffffff" d="M 17.996094 10.863281 C 17.675781 10.863281 17.414062 11.121094 17.414062 11.441406 L 17.414062 25.46875 C 17.414062 25.789062 17.675781 26.046875 17.996094 26.046875 C 18.316406 26.046875 18.574219 25.789062 18.574219 25.46875 L 18.574219 11.441406 C 18.574219 11.121094 18.316406 10.863281 17.996094 10.863281 " fill-opacity="1" fill-rule="nonzero"/><path fill="#ffffff" d="M 20.109375 8.910156 C 19.789062 8.910156 19.53125 9.167969 19.53125 9.488281 L 19.53125 27.421875 C 19.53125 27.742188 19.789062 28 20.109375 28 C 20.429688 28 20.691406 27.742188 20.691406 27.421875 L 20.691406 9.488281 C 20.691406 9.167969 20.429688 8.910156 20.109375 8.910156 " fill-opacity="1" fill-rule="nonzero"/><path fill="#ffffff" d="M 22.226562 10.863281 C 21.90625 10.863281 21.648438 11.121094 21.648438 11.441406 L 21.648438 25.46875 C 21.648438 25.789062 21.90625 26.046875 22.226562 26.046875 C 22.546875 26.046875 22.804688 25.789062 22.804688 25.46875 L 22.804688 11.441406 C 22.804688 11.121094 22.546875 10.863281 22.226562 10.863281 " fill-opacity="1" fill-rule="nonzero"/><path fill="#ffffff" d="M 24.339844 14.765625 C 24.019531 14.765625 23.761719 15.027344 23.761719 15.347656 L 23.761719 21.5625 C 23.761719 21.882812 24.019531 22.140625 24.339844 22.140625 C 24.660156 22.140625 24.921875 21.882812 24.921875 21.5625 L 24.921875 15.347656 C 24.921875 15.027344 24.660156 14.765625 24.339844 14.765625 " fill-opacity="1" fill-rule="nonzero"/><path fill="#ffffff" d="M 26.457031 13.789062 C 26.136719 13.789062 25.878906 14.050781 25.878906 14.371094 L 25.878906 22.539062 C 25.878906 22.859375 26.136719 23.117188 26.457031 23.117188 C 26.777344 23.117188 27.035156 22.859375 27.035156 22.539062 L 27.035156 14.371094 C 27.035156 14.050781 26.777344 13.789062 26.457031 13.789062 " fill-opacity="1" fill-rule="nonzero"/><path fill="#ffffff" d="M 28.570312 11.835938 C 28.253906 11.835938 27.992188 12.097656 27.992188 12.417969 L 27.992188 24.492188 C 27.992188 24.8125 28.253906 25.070312 28.570312 25.070312 C 28.890625 25.070312 29.152344 24.8125 29.152344 24.492188 L 29.152344 12.417969 C 29.152344 12.097656 28.890625 11.835938 28.570312 11.835938 " fill-opacity="1" fill-rule="nonzero"/><path fill="#ffffff" d="M 30.6875 14.765625 C 30.367188 14.765625 30.109375 15.027344 30.109375 15.347656 L 30.109375 21.5625 C 30.109375 21.882812 30.367188 22.140625 30.6875 22.140625 C 31.007812 22.140625 31.265625 21.882812 31.265625 21.5625 L 31.265625 15.347656 C 31.265625 15.027344 31.007812 14.765625 30.6875 14.765625 " fill-opacity="1" fill-rule="nonzero"/><path fill="#ffffff" d="M 32.804688 15.742188 C 32.484375 15.742188 32.222656 16.003906 32.222656 16.324219 L 32.222656 20.585938 C 32.222656 20.90625 32.484375 21.164062 32.804688 21.164062 C 33.121094 21.164062 33.382812 20.90625 33.382812 20.585938 L 33.382812 16.324219 C 33.382812 16.003906 33.121094 15.742188 32.804688 15.742188 " fill-opacity="1" fill-rule="nonzero"/><g clip-path="url(#bbc84127b5)"><path fill="#ffffff" d="M 34.917969 16.71875 C 34.597656 16.71875 34.339844 16.980469 34.339844 17.300781 L 34.339844 19.609375 C 34.339844 19.929688 34.597656 20.1875 34.917969 20.1875 C 35.238281 20.1875 35.496094 19.929688 35.496094 19.609375 L 35.496094 17.300781 C 35.496094 16.980469 35.238281 16.71875 34.917969 16.71875 " fill-opacity="1" fill-rule="nonzero"/></g></svg>